<svg xmlns="http://www.w3.org/2000/svg" version="1.1" xmlns:xlink="http://www.w3.org/1999/xlink" xmlns:svgjs="http://svgjs.dev/svgjs" width="1920" height="1080" preserveAspectRatio="none" viewBox="0 0 1920 1080">
    <g mask="url(&quot;#SvgjsMask1148&quot;)" fill="none">
        <rect width="1920" height="1080" x="0" y="0" fill="url(&quot;#SvgjsLinearGradient1149&quot;)"></rect>
        <path d="M152 1009.83L302.69 1096.83L302.69 1270.83L152 1357.83L1.31 1270.83L1.31 1096.83zM905.46 748.83L1056.16 835.83L1056.16 1009.83L905.46 1096.83L754.77 1009.83L754.77 835.83zM754.77 1009.83L905.46 1096.83L905.46 1270.83L754.77 1357.83L604.08 1270.83L604.08 1096.83zM1206.85 748.83L1357.54 835.83L1357.54 1009.83L1206.85 1096.83L1056.16 1009.83L1056.16 835.83zM1056.16 1009.83L1206.85 1096.83L1206.85 1270.83L1056.16 1357.83L905.46 1270.83L905.46 1096.83zM1357.54 -34.17L1508.23 52.83L1508.23 226.83L1357.54 313.83L1206.85 226.83L1206.85 52.83zM1357.54 1009.83L1508.23 1096.83L1508.23 1270.83L1357.54 1357.83L1206.85 1270.83L1206.85 1096.83zM1658.93 487.83L1809.62 574.83L1809.62 748.83L1658.93 835.83L1508.23 748.83L1508.23 574.83zM1809.62 748.83L1960.31 835.83L1960.31 1009.83L1809.62 1096.83L1658.93 1009.83L1658.93 835.83zM2111.01 748.83L2261.7 835.83L2261.7 1009.83L2111.01 1096.83L1960.31 1009.83L1960.31 835.83z" stroke="#03305d" stroke-width="2"></path>
        <path d="M134.6 1009.83 a17.4 17.4 0 1 0 34.8 0 a17.4 17.4 0 1 0 -34.8 0zM285.29 1096.83 a17.4 17.4 0 1 0 34.8 0 a17.4 17.4 0 1 0 -34.8 0zM285.29 1270.83 a17.4 17.4 0 1 0 34.8 0 a17.4 17.4 0 1 0 -34.8 0zM134.6 1357.83 a17.4 17.4 0 1 0 34.8 0 a17.4 17.4 0 1 0 -34.8 0zM-16.09 1270.83 a17.4 17.4 0 1 0 34.8 0 a17.4 17.4 0 1 0 -34.8 0zM-16.09 1096.83 a17.4 17.4 0 1 0 34.8 0 a17.4 17.4 0 1 0 -34.8 0zM888.06 748.83 a17.4 17.4 0 1 0 34.8 0 a17.4 17.4 0 1 0 -34.8 0zM1038.76 835.83 a17.4 17.4 0 1 0 34.8 0 a17.4 17.4 0 1 0 -34.8 0zM1038.76 1009.83 a17.4 17.4 0 1 0 34.8 0 a17.4 17.4 0 1 0 -34.8 0zM888.06 1096.83 a17.4 17.4 0 1 0 34.8 0 a17.4 17.4 0 1 0 -34.8 0zM737.37 1009.83 a17.4 17.4 0 1 0 34.8 0 a17.4 17.4 0 1 0 -34.8 0zM737.37 835.83 a17.4 17.4 0 1 0 34.8 0 a17.4 17.4 0 1 0 -34.8 0zM888.06 1270.83 a17.4 17.4 0 1 0 34.8 0 a17.4 17.4 0 1 0 -34.8 0zM737.37 1357.83 a17.4 17.4 0 1 0 34.8 0 a17.4 17.4 0 1 0 -34.8 0zM586.68 1270.83 a17.4 17.4 0 1 0 34.8 0 a17.4 17.4 0 1 0 -34.8 0zM586.68 1096.83 a17.4 17.4 0 1 0 34.8 0 a17.4 17.4 0 1 0 -34.8 0zM1189.45 748.83 a17.4 17.4 0 1 0 34.8 0 a17.4 17.4 0 1 0 -34.8 0zM1340.14 835.83 a17.4 17.4 0 1 0 34.8 0 a17.4 17.4 0 1 0 -34.8 0zM1340.14 1009.83 a17.4 17.4 0 1 0 34.8 0 a17.4 17.4 0 1 0 -34.8 0zM1189.45 1096.83 a17.4 17.4 0 1 0 34.8 0 a17.4 17.4 0 1 0 -34.8 0zM1189.45 1270.83 a17.4 17.4 0 1 0 34.8 0 a17.4 17.4 0 1 0 -34.8 0zM1038.76 1357.83 a17.4 17.4 0 1 0 34.8 0 a17.4 17.4 0 1 0 -34.8 0zM1340.14 -34.17 a17.4 17.4 0 1 0 34.8 0 a17.4 17.4 0 1 0 -34.8 0zM1490.83 52.83 a17.4 17.4 0 1 0 34.8 0 a17.4 17.4 0 1 0 -34.8 0zM1490.83 226.83 a17.4 17.4 0 1 0 34.8 0 a17.4 17.4 0 1 0 -34.8 0zM1340.14 313.83 a17.4 17.4 0 1 0 34.8 0 a17.4 17.4 0 1 0 -34.8 0zM1189.45 226.83 a17.4 17.4 0 1 0 34.8 0 a17.4 17.4 0 1 0 -34.8 0zM1189.45 52.83 a17.4 17.4 0 1 0 34.8 0 a17.4 17.4 0 1 0 -34.8 0zM1490.83 1096.83 a17.4 17.4 0 1 0 34.8 0 a17.4 17.4 0 1 0 -34.8 0zM1490.83 1270.83 a17.4 17.4 0 1 0 34.8 0 a17.4 17.4 0 1 0 -34.8 0zM1340.14 1357.83 a17.4 17.4 0 1 0 34.8 0 a17.4 17.4 0 1 0 -34.8 0zM1641.53 487.83 a17.4 17.4 0 1 0 34.8 0 a17.4 17.4 0 1 0 -34.8 0zM1792.22 574.83 a17.4 17.4 0 1 0 34.8 0 a17.4 17.4 0 1 0 -34.8 0zM1792.22 748.83 a17.4 17.4 0 1 0 34.8 0 a17.4 17.4 0 1 0 -34.8 0zM1641.53 835.83 a17.4 17.4 0 1 0 34.8 0 a17.4 17.4 0 1 0 -34.8 0zM1490.83 748.83 a17.4 17.4 0 1 0 34.8 0 a17.4 17.4 0 1 0 -34.8 0zM1490.83 574.83 a17.4 17.4 0 1 0 34.8 0 a17.4 17.4 0 1 0 -34.8 0zM1942.91 835.83 a17.4 17.4 0 1 0 34.8 0 a17.4 17.4 0 1 0 -34.8 0zM1942.91 1009.83 a17.4 17.4 0 1 0 34.8 0 a17.4 17.4 0 1 0 -34.8 0zM1792.22 1096.83 a17.4 17.4 0 1 0 34.8 0 a17.4 17.4 0 1 0 -34.8 0zM1641.53 1009.83 a17.4 17.4 0 1 0 34.8 0 a17.4 17.4 0 1 0 -34.8 0zM2093.61 748.83 a17.4 17.4 0 1 0 34.8 0 a17.4 17.4 0 1 0 -34.8 0zM2244.3 835.83 a17.4 17.4 0 1 0 34.8 0 a17.4 17.4 0 1 0 -34.8 0zM2244.3 1009.83 a17.4 17.4 0 1 0 34.8 0 a17.4 17.4 0 1 0 -34.8 0zM2093.61 1096.83 a17.4 17.4 0 1 0 34.8 0 a17.4 17.4 0 1 0 -34.8 0z" fill="#03305d"></path>
        <path d="M28.06 -9.33L71.36 15.67L71.36 65.67L28.06 90.67L-15.24 65.67L-15.24 15.67zM28.06 290.67L71.36 315.67L71.36 365.67L28.06 390.67L-15.24 365.67L-15.24 315.67zM71.36 515.67L114.67 540.67L114.67 590.67L71.36 615.67L28.06 590.67L28.06 540.67zM28.06 590.67L71.36 615.67L71.36 665.67L28.06 690.67L-15.24 665.67L-15.24 615.67zM71.36 665.67L114.67 690.67L114.67 740.67L71.36 765.67L28.06 740.67L28.06 690.67zM28.06 740.67L71.36 765.67L71.36 815.67L28.06 840.67L-15.24 815.67L-15.24 765.67zM28.06 890.67L71.36 915.67L71.36 965.67L28.06 990.67L-15.24 965.67L-15.24 915.67zM71.36 965.67L114.67 990.67L114.67 1040.67L71.36 1065.67L28.06 1040.67L28.06 990.67zM28.06 1040.67L71.36 1065.67L71.36 1115.67L28.06 1140.67L-15.24 1115.67L-15.24 1065.67zM114.67 -9.33L157.97 15.67L157.97 65.67L114.67 90.67L71.36 65.67L71.36 15.67zM157.97 65.67L201.27 90.67L201.27 140.67L157.97 165.67L114.67 140.67L114.67 90.67zM157.97 215.67L201.27 240.67L201.27 290.67L157.97 315.67L114.67 290.67L114.67 240.67zM114.67 290.67L157.97 315.67L157.97 365.67L114.67 390.67L71.36 365.67L71.36 315.67zM157.97 515.67L201.27 540.67L201.27 590.67L157.97 615.67L114.67 590.67L114.67 540.67zM157.97 665.67L201.27 690.67L201.27 740.67L157.97 765.67L114.67 740.67L114.67 690.67zM157.97 965.67L201.27 990.67L201.27 1040.67L157.97 1065.67L114.67 1040.67L114.67 990.67zM201.27 -9.33L244.57 15.67L244.57 65.67L201.27 90.67L157.97 65.67L157.97 15.67zM201.27 140.67L244.57 165.67L244.57 215.67L201.27 240.67L157.97 215.67L157.97 165.67zM244.57 365.67L287.88 390.67L287.88 440.67L244.57 465.67L201.27 440.67L201.27 390.67zM201.27 440.67L244.57 465.67L244.57 515.67L201.27 540.67L157.97 515.67L157.97 465.67zM201.27 590.67L244.57 615.67L244.57 665.67L201.27 690.67L157.97 665.67L157.97 615.67zM244.57 965.67L287.88 990.67L287.88 1040.67L244.57 1065.67L201.27 1040.67L201.27 990.67zM287.88 290.67L331.18 315.67L331.18 365.67L287.88 390.67L244.57 365.67L244.57 315.67zM331.18 365.67L374.48 390.67L374.48 440.67L331.18 465.67L287.88 440.67L287.88 390.67zM287.88 440.67L331.18 465.67L331.18 515.67L287.88 540.67L244.57 515.67L244.57 465.67zM287.88 590.67L331.18 615.67L331.18 665.67L287.88 690.67L244.57 665.67L244.57 615.67zM331.18 965.67L374.48 990.67L374.48 1040.67L331.18 1065.67L287.88 1040.67L287.88 990.67zM374.48 -9.33L417.78 15.67L417.78 65.67L374.48 90.67L331.18 65.67L331.18 15.67zM417.78 365.67L461.09 390.67L461.09 440.67L417.78 465.67L374.48 440.67L374.48 390.67zM374.48 740.67L417.78 765.67L417.78 815.67L374.48 840.67L331.18 815.67L331.18 765.67zM504.39 65.67L547.69 90.67L547.69 140.67L504.39 165.67L461.09 140.67L461.09 90.67zM461.09 290.67L504.39 315.67L504.39 365.67L461.09 390.67L417.78 365.67L417.78 315.67zM504.39 515.67L547.69 540.67L547.69 590.67L504.39 615.67L461.09 590.67L461.09 540.67zM461.09 590.67L504.39 615.67L504.39 665.67L461.09 690.67L417.78 665.67L417.78 615.67zM461.09 740.67L504.39 765.67L504.39 815.67L461.09 840.67L417.78 815.67L417.78 765.67zM504.39 965.67L547.69 990.67L547.69 1040.67L504.39 1065.67L461.09 1040.67L461.09 990.67zM461.09 1040.67L504.39 1065.67L504.39 1115.67L461.09 1140.67L417.78 1115.67L417.78 1065.67zM547.69 -9.33L590.99 15.67L590.99 65.67L547.69 90.67L504.39 65.67L504.39 15.67zM590.99 515.67L634.29 540.67L634.29 590.67L590.99 615.67L547.69 590.67L547.69 540.67zM547.69 740.67L590.99 765.67L590.99 815.67L547.69 840.67L504.39 815.67L504.39 765.67zM590.99 815.67L634.29 840.67L634.29 890.67L590.99 915.67L547.69 890.67L547.69 840.67zM634.29 440.67L677.6 465.67L677.6 515.67L634.29 540.67L590.99 515.67L590.99 465.67zM720.9 140.67L764.2 165.67L764.2 215.67L720.9 240.67L677.6 215.67L677.6 165.67zM720.9 290.67L764.2 315.67L764.2 365.67L720.9 390.67L677.6 365.67L677.6 315.67zM764.2 365.67L807.5 390.67L807.5 440.67L764.2 465.67L720.9 440.67L720.9 390.67zM720.9 440.67L764.2 465.67L764.2 515.67L720.9 540.67L677.6 515.67L677.6 465.67zM720.9 590.67L764.2 615.67L764.2 665.67L720.9 690.67L677.6 665.67L677.6 615.67zM764.2 665.67L807.5 690.67L807.5 740.67L764.2 765.67L720.9 740.67L720.9 690.67zM720.9 740.67L764.2 765.67L764.2 815.67L720.9 840.67L677.6 815.67L677.6 765.67zM764.2 965.67L807.5 990.67L807.5 1040.67L764.2 1065.67L720.9 1040.67L720.9 990.67zM720.9 1040.67L764.2 1065.67L764.2 1115.67L720.9 1140.67L677.6 1115.67L677.6 1065.67zM850.81 515.67L894.11 540.67L894.11 590.67L850.81 615.67L807.5 590.67L807.5 540.67zM807.5 740.67L850.81 765.67L850.81 815.67L807.5 840.67L764.2 815.67L764.2 765.67zM807.5 890.67L850.81 915.67L850.81 965.67L807.5 990.67L764.2 965.67L764.2 915.67zM850.81 965.67L894.11 990.67L894.11 1040.67L850.81 1065.67L807.5 1040.67L807.5 990.67zM894.11 140.67L937.41 165.67L937.41 215.67L894.11 240.67L850.81 215.67L850.81 165.67zM937.41 215.67L980.72 240.67L980.72 290.67L937.41 315.67L894.11 290.67L894.11 240.67zM937.41 365.67L980.72 390.67L980.72 440.67L937.41 465.67L894.11 440.67L894.11 390.67zM894.11 440.67L937.41 465.67L937.41 515.67L894.11 540.67L850.81 515.67L850.81 465.67zM937.41 515.67L980.72 540.67L980.72 590.67L937.41 615.67L894.11 590.67L894.11 540.67zM894.11 590.67L937.41 615.67L937.41 665.67L894.11 690.67L850.81 665.67L850.81 615.67zM894.11 740.67L937.41 765.67L937.41 815.67L894.11 840.67L850.81 815.67L850.81 765.67zM937.41 965.67L980.72 990.67L980.72 1040.67L937.41 1065.67L894.11 1040.67L894.11 990.67zM894.11 1040.67L937.41 1065.67L937.41 1115.67L894.11 1140.67L850.81 1115.67L850.81 1065.67zM1024.02 65.67L1067.32 90.67L1067.32 140.67L1024.02 165.67L980.72 140.67L980.72 90.67zM980.72 140.67L1024.02 165.67L1024.02 215.67L980.72 240.67L937.41 215.67L937.41 165.67zM1024.02 215.67L1067.32 240.67L1067.32 290.67L1024.02 315.67L980.72 290.67L980.72 240.67zM980.72 290.67L1024.02 315.67L1024.02 365.67L980.72 390.67L937.41 365.67L937.41 315.67zM1024.02 515.67L1067.32 540.67L1067.32 590.67L1024.02 615.67L980.72 590.67L980.72 540.67zM1024.02 665.67L1067.32 690.67L1067.32 740.67L1024.02 765.67L980.72 740.67L980.72 690.67zM1024.02 965.67L1067.32 990.67L1067.32 1040.67L1024.02 1065.67L980.72 1040.67L980.72 990.67zM980.72 1040.67L1024.02 1065.67L1024.02 1115.67L980.72 1140.67L937.41 1115.67L937.41 1065.67zM1110.62 365.67L1153.92 390.67L1153.92 440.67L1110.62 465.67L1067.32 440.67L1067.32 390.67zM1067.32 440.67L1110.62 465.67L1110.62 515.67L1067.32 540.67L1024.02 515.67L1024.02 465.67zM1110.62 515.67L1153.92 540.67L1153.92 590.67L1110.62 615.67L1067.32 590.67L1067.32 540.67zM1110.62 665.67L1153.92 690.67L1153.92 740.67L1110.62 765.67L1067.32 740.67L1067.32 690.67zM1110.62 815.67L1153.92 840.67L1153.92 890.67L1110.62 915.67L1067.32 890.67L1067.32 840.67zM1110.62 965.67L1153.92 990.67L1153.92 1040.67L1110.62 1065.67L1067.32 1040.67L1067.32 990.67zM1067.32 1040.67L1110.62 1065.67L1110.62 1115.67L1067.32 1140.67L1024.02 1115.67L1024.02 1065.67zM1197.23 65.67L1240.53 90.67L1240.53 140.67L1197.23 165.67L1153.92 140.67L1153.92 90.67zM1153.92 440.67L1197.23 465.67L1197.23 515.67L1153.92 540.67L1110.62 515.67L1110.62 465.67zM1197.23 515.67L1240.53 540.67L1240.53 590.67L1197.23 615.67L1153.92 590.67L1153.92 540.67zM1153.92 740.67L1197.23 765.67L1197.23 815.67L1153.92 840.67L1110.62 815.67L1110.62 765.67zM1197.23 965.67L1240.53 990.67L1240.53 1040.67L1197.23 1065.67L1153.92 1040.67L1153.92 990.67zM1153.92 1040.67L1197.23 1065.67L1197.23 1115.67L1153.92 1140.67L1110.62 1115.67L1110.62 1065.67zM1283.83 215.67L1327.13 240.67L1327.13 290.67L1283.83 315.67L1240.53 290.67L1240.53 240.67zM1240.53 590.67L1283.83 615.67L1283.83 665.67L1240.53 690.67L1197.23 665.67L1197.23 615.67zM1283.83 665.67L1327.13 690.67L1327.13 740.67L1283.83 765.67L1240.53 740.67L1240.53 690.67zM1283.83 815.67L1327.13 840.67L1327.13 890.67L1283.83 915.67L1240.53 890.67L1240.53 840.67zM1370.44 365.67L1413.74 390.67L1413.74 440.67L1370.44 465.67L1327.13 440.67L1327.13 390.67zM1370.44 515.67L1413.74 540.67L1413.74 590.67L1370.44 615.67L1327.13 590.67L1327.13 540.67zM1370.44 665.67L1413.74 690.67L1413.74 740.67L1370.44 765.67L1327.13 740.67L1327.13 690.67zM1370.44 965.67L1413.74 990.67L1413.74 1040.67L1370.44 1065.67L1327.13 1040.67L1327.13 990.67zM1413.74 -9.33L1457.04 15.67L1457.04 65.67L1413.74 90.67L1370.44 65.67L1370.44 15.67zM1457.04 365.67L1500.35 390.67L1500.35 440.67L1457.04 465.67L1413.74 440.67L1413.74 390.67zM1413.74 590.67L1457.04 615.67L1457.04 665.67L1413.74 690.67L1370.44 665.67L1370.44 615.67zM1457.04 665.67L1500.35 690.67L1500.35 740.67L1457.04 765.67L1413.74 740.67L1413.74 690.67zM1413.74 740.67L1457.04 765.67L1457.04 815.67L1413.74 840.67L1370.44 815.67L1370.44 765.67zM1500.35 -9.33L1543.65 15.67L1543.65 65.67L1500.35 90.67L1457.04 65.67L1457.04 15.67zM1500.35 290.67L1543.65 315.67L1543.65 365.67L1500.35 390.67L1457.04 365.67L1457.04 315.67zM1543.65 815.67L1586.95 840.67L1586.95 890.67L1543.65 915.67L1500.35 890.67L1500.35 840.67zM1586.95 -9.33L1630.25 15.67L1630.25 65.67L1586.95 90.67L1543.65 65.67L1543.65 15.67zM1586.95 290.67L1630.25 315.67L1630.25 365.67L1586.95 390.67L1543.65 365.67L1543.65 315.67zM1630.25 365.67L1673.56 390.67L1673.56 440.67L1630.25 465.67L1586.95 440.67L1586.95 390.67zM1586.95 440.67L1630.25 465.67L1630.25 515.67L1586.95 540.67L1543.65 515.67L1543.65 465.67zM1586.95 740.67L1630.25 765.67L1630.25 815.67L1586.95 840.67L1543.65 815.67L1543.65 765.67zM1630.25 965.67L1673.56 990.67L1673.56 1040.67L1630.25 1065.67L1586.95 1040.67L1586.95 990.67zM1716.86 65.67L1760.16 90.67L1760.16 140.67L1716.86 165.67L1673.56 140.67L1673.56 90.67zM1673.56 140.67L1716.86 165.67L1716.86 215.67L1673.56 240.67L1630.25 215.67L1630.25 165.67zM1673.56 290.67L1716.86 315.67L1716.86 365.67L1673.56 390.67L1630.25 365.67L1630.25 315.67zM1716.86 365.67L1760.16 390.67L1760.16 440.67L1716.86 465.67L1673.56 440.67L1673.56 390.67zM1673.56 890.67L1716.86 915.67L1716.86 965.67L1673.56 990.67L1630.25 965.67L1630.25 915.67zM1716.86 965.67L1760.16 990.67L1760.16 1040.67L1716.86 1065.67L1673.56 1040.67L1673.56 990.67zM1760.16 140.67L1803.46 165.67L1803.46 215.67L1760.16 240.67L1716.86 215.67L1716.86 165.67zM1803.46 215.67L1846.77 240.67L1846.77 290.67L1803.46 315.67L1760.16 290.67L1760.16 240.67zM1760.16 590.67L1803.46 615.67L1803.46 665.67L1760.16 690.67L1716.86 665.67L1716.86 615.67zM1846.77 140.67L1890.07 165.67L1890.07 215.67L1846.77 240.67L1803.46 215.67L1803.46 165.67zM1846.77 290.67L1890.07 315.67L1890.07 365.67L1846.77 390.67L1803.46 365.67L1803.46 315.67zM1890.07 665.67L1933.37 690.67L1933.37 740.67L1890.07 765.67L1846.77 740.67L1846.77 690.67zM1846.77 740.67L1890.07 765.67L1890.07 815.67L1846.77 840.67L1803.46 815.67L1803.46 765.67zM1890.07 815.67L1933.37 840.67L1933.37 890.67L1890.07 915.67L1846.77 890.67L1846.77 840.67zM1933.37 440.67L1976.67 465.67L1976.67 515.67L1933.37 540.67L1890.07 515.67L1890.07 465.67zM1933.37 740.67L1976.67 765.67L1976.67 815.67L1933.37 840.67L1890.07 815.67L1890.07 765.67z" stroke="rgba(0, 0, 0, 0)" stroke-width="2"></path>
    </g>
    <defs>
        <mask id="SvgjsMask1148">
            <rect width="1920" height="1080" fill="#ffffff"></rect>
        </mask>
        <linearGradient x1="100%" y1="50%" x2="0%" y2="50%" gradientUnits="userSpaceOnUse" id="SvgjsLinearGradient1149">
            <stop stop-color="#0e2a47" offset="0"></stop>
            <stop stop-color="rgba(7, 246, 253, 1)" offset="1"></stop>
        </linearGradient>
    </defs>
</svg>