<svg xmlns="http://www.w3.org/2000/svg" version="1.1" xmlns:xlink="http://www.w3.org/1999/xlink" xmlns:svgjs="http://svgjs.dev/svgjs" width="1440" height="560" preserveAspectRatio="none" viewBox="0 0 1440 560">
    <g mask="url(&quot;#SvgjsMask1038&quot;)" fill="none">
        <rect width="1440" height="560" x="0" y="0" fill="url(&quot;#SvgjsLinearGradient1039&quot;)"></rect>
        <path d="M-39.82 402.94L-39.82 402.94" stroke="rgba(22, 14, 35, 1)" stroke-width="1.5"></path>
        <path d="M-39.82 402.94L73.7 361.8" stroke="rgba(22, 14, 35, 1)" stroke-width="1.5"></path>
        <path d="M-39.82 402.94L-46.71 532.44" stroke="rgba(22, 14, 35, 1)" stroke-width="1.5"></path>
        <path d="M-39.82 402.94L40.11 520.44" stroke="rgba(22, 14, 35, 1)" stroke-width="1.5"></path>
        <path d="M-46.71 532.44L-46.71 532.44" stroke="rgba(22, 14, 35, 1)" stroke-width="1.5"></path>
        <path d="M-46.71 532.44L40.11 520.44" stroke="rgba(22, 14, 35, 1)" stroke-width="1.5"></path>
        <path d="M-46.71 532.44L-86.1 677.59" stroke="rgba(22, 14, 35, 1)" stroke-width="1.5"></path>
        <path d="M-46.71 532.44L64.83 708.02" stroke="rgba(22, 14, 35, 1)" stroke-width="1.5"></path>
        <path d="M-46.71 532.44L73.7 361.8" stroke="rgba(22, 14, 35, 1)" stroke-width="1.5"></path>
        <path d="M-86.1 677.59L-86.1 677.59" stroke="rgba(22, 14, 35, 1)" stroke-width="1.5"></path>
        <path d="M-86.1 677.59L64.83 708.02" stroke="rgba(22, 14, 35, 1)" stroke-width="1.5"></path>
        <path d="M-86.1 677.59L40.11 520.44" stroke="rgba(22, 14, 35, 1)" stroke-width="1.5"></path>
        <path d="M-86.1 677.59L-39.82 402.94" stroke="rgba(22, 14, 35, 1)" stroke-width="1.5"></path>
        <path d="M-86.1 677.59L205.75 678.63" stroke="rgba(22, 14, 35, 1)" stroke-width="1.5"></path>
        <path d="M73.7 361.8L73.7 361.8" stroke="rgba(22, 14, 35, 1)" stroke-width="1.5"></path>
        <path d="M73.7 361.8L210.64 358.06" stroke="rgba(22, 14, 35, 1)" stroke-width="1.5"></path>
        <path d="M73.7 361.8L40.11 520.44" stroke="rgba(22, 14, 35, 1)" stroke-width="1.5"></path>
        <path d="M40.11 520.44L40.11 520.44" stroke="rgba(22, 14, 35, 1)" stroke-width="1.5"></path>
        <path d="M40.11 520.44L64.83 708.02" stroke="rgba(22, 14, 35, 1)" stroke-width="1.5"></path>
        <path d="M40.11 520.44L233.75 499.51" stroke="rgba(22, 14, 35, 1)" stroke-width="1.5"></path>
        <path d="M64.83 708.02L64.83 708.02" stroke="rgba(22, 14, 35, 1)" stroke-width="1.5"></path>
        <path d="M64.83 708.02L205.75 678.63" stroke="rgba(22, 14, 35, 1)" stroke-width="1.5"></path>
        <path d="M64.83 708.02L233.75 499.51" stroke="rgba(22, 14, 35, 1)" stroke-width="1.5"></path>
        <path d="M64.83 708.02L350.58 651.05" stroke="rgba(22, 14, 35, 1)" stroke-width="1.5"></path>
        <path d="M210.64 358.06L210.64 358.06" stroke="rgba(22, 14, 35, 1)" stroke-width="1.5"></path>
        <path d="M210.64 358.06L340.59 381.27" stroke="rgba(22, 14, 35, 1)" stroke-width="1.5"></path>
        <path d="M210.64 358.06L233.75 499.51" stroke="rgba(22, 14, 35, 1)" stroke-width="1.5"></path>
        <path d="M210.64 358.06L388.09 503.12" stroke="rgba(22, 14, 35, 1)" stroke-width="1.5"></path>
        <path d="M233.75 499.51L233.75 499.51" stroke="rgba(22, 14, 35, 1)" stroke-width="1.5"></path>
        <path d="M233.75 499.51L388.09 503.12" stroke="rgba(22, 14, 35, 1)" stroke-width="1.5"></path>
        <path d="M233.75 499.51L340.59 381.27" stroke="rgba(22, 14, 35, 1)" stroke-width="1.5"></path>
        <path d="M205.75 678.63L205.75 678.63" stroke="rgba(22, 14, 35, 1)" stroke-width="1.5"></path>
        <path d="M205.75 678.63L350.58 651.05" stroke="rgba(22, 14, 35, 1)" stroke-width="1.5"></path>
        <path d="M205.75 678.63L233.75 499.51" stroke="rgba(22, 14, 35, 1)" stroke-width="1.5"></path>
        <path d="M205.75 678.63L40.11 520.44" stroke="rgba(22, 14, 35, 1)" stroke-width="1.5"></path>
        <path d="M205.75 678.63L388.09 503.12" stroke="rgba(22, 14, 35, 1)" stroke-width="1.5"></path>
        <path d="M340.59 381.27L340.59 381.27" stroke="rgba(22, 14, 35, 1)" stroke-width="1.5"></path>
        <path d="M340.59 381.27L388.09 503.12" stroke="rgba(22, 14, 35, 1)" stroke-width="1.5"></path>
        <path d="M388.09 503.12L388.09 503.12" stroke="rgba(22, 14, 35, 1)" stroke-width="1.5"></path>
        <path d="M388.09 503.12L500.34 497.39" stroke="rgba(22, 14, 35, 1)" stroke-width="1.5"></path>
        <path d="M388.09 503.12L350.58 651.05" stroke="rgba(22, 14, 35, 1)" stroke-width="1.5"></path>
        <path d="M350.58 651.05L350.58 651.05" stroke="rgba(22, 14, 35, 1)" stroke-width="1.5"></path>
        <path d="M350.58 651.05L233.75 499.51" stroke="rgba(22, 14, 35, 1)" stroke-width="1.5"></path>
        <path d="M350.58 651.05L544.48 683.98" stroke="rgba(22, 14, 35, 1)" stroke-width="1.5"></path>
        <path d="M507.2 354.05L507.2 354.05" stroke="rgba(22, 14, 35, 1)" stroke-width="1.5"></path>
        <path d="M507.2 354.05L500.34 497.39" stroke="rgba(22, 14, 35, 1)" stroke-width="1.5"></path>
        <path d="M507.2 354.05L662.82 348.82" stroke="rgba(22, 14, 35, 1)" stroke-width="1.5"></path>
        <path d="M507.2 354.05L340.59 381.27" stroke="rgba(22, 14, 35, 1)" stroke-width="1.5"></path>
        <path d="M500.34 497.39L500.34 497.39" stroke="rgba(22, 14, 35, 1)" stroke-width="1.5"></path>
        <path d="M500.34 497.39L544.48 683.98" stroke="rgba(22, 14, 35, 1)" stroke-width="1.5"></path>
        <path d="M500.34 497.39L340.59 381.27" stroke="rgba(22, 14, 35, 1)" stroke-width="1.5"></path>
        <path d="M544.48 683.98L544.48 683.98" stroke="rgba(22, 14, 35, 1)" stroke-width="1.5"></path>
        <path d="M544.48 683.98L673.02 674.19" stroke="rgba(22, 14, 35, 1)" stroke-width="1.5"></path>
        <path d="M662.82 348.82L662.82 348.82" stroke="rgba(22, 14, 35, 1)" stroke-width="1.5"></path>
        <path d="M662.82 348.82L703.37 543.61" stroke="rgba(22, 14, 35, 1)" stroke-width="1.5"></path>
        <path d="M662.82 348.82L500.34 497.39" stroke="rgba(22, 14, 35, 1)" stroke-width="1.5"></path>
        <path d="M703.37 543.61L703.37 543.61" stroke="rgba(22, 14, 35, 1)" stroke-width="1.5"></path>
        <path d="M703.37 543.61L673.02 674.19" stroke="rgba(22, 14, 35, 1)" stroke-width="1.5"></path>
        <path d="M703.37 543.61L846.76 548.16" stroke="rgba(22, 14, 35, 1)" stroke-width="1.5"></path>
        <path d="M673.02 674.19L673.02 674.19" stroke="rgba(22, 14, 35, 1)" stroke-width="1.5"></path>
        <path d="M673.02 674.19L787.89 701.67" stroke="rgba(22, 14, 35, 1)" stroke-width="1.5"></path>
        <path d="M846.76 548.16L846.76 548.16" stroke="rgba(22, 14, 35, 1)" stroke-width="1.5"></path>
        <path d="M846.76 548.16L963.78 548.64" stroke="rgba(22, 14, 35, 1)" stroke-width="1.5"></path>
        <path d="M846.76 548.16L948.18 662.71" stroke="rgba(22, 14, 35, 1)" stroke-width="1.5"></path>
        <path d="M846.76 548.16L787.89 701.67" stroke="rgba(22, 14, 35, 1)" stroke-width="1.5"></path>
        <path d="M787.89 701.67L787.89 701.67" stroke="rgba(22, 14, 35, 1)" stroke-width="1.5"></path>
        <path d="M787.89 701.67L948.18 662.71" stroke="rgba(22, 14, 35, 1)" stroke-width="1.5"></path>
        <path d="M787.89 701.67L703.37 543.61" stroke="rgba(22, 14, 35, 1)" stroke-width="1.5"></path>
        <path d="M787.89 701.67L963.78 548.64" stroke="rgba(22, 14, 35, 1)" stroke-width="1.5"></path>
        <path d="M988.14 -40.48L988.14 -40.48" stroke="rgba(22, 14, 35, 1)" stroke-width="1.5"></path>
        <path d="M988.14 -40.48L965.25 70.86" stroke="rgba(22, 14, 35, 1)" stroke-width="1.5"></path>
        <path d="M988.14 -40.48L1097.32 59.96" stroke="rgba(22, 14, 35, 1)" stroke-width="1.5"></path>
        <path d="M965.25 70.86L965.25 70.86" stroke="rgba(22, 14, 35, 1)" stroke-width="1.5"></path>
        <path d="M965.25 70.86L1097.32 59.96" stroke="rgba(22, 14, 35, 1)" stroke-width="1.5"></path>
        <path d="M965.25 70.86L993.99 239.27" stroke="rgba(22, 14, 35, 1)" stroke-width="1.5"></path>
        <path d="M965.25 70.86L1133.05 246.46" stroke="rgba(22, 14, 35, 1)" stroke-width="1.5"></path>
        <path d="M965.25 70.86L1008.34 372.18" stroke="rgba(22, 14, 35, 1)" stroke-width="1.5"></path>
        <path d="M965.25 70.86L1260.08 -56.87" stroke="rgba(22, 14, 35, 1)" stroke-width="1.5"></path>
        <path d="M993.99 239.27L993.99 239.27" stroke="rgba(22, 14, 35, 1)" stroke-width="1.5"></path>
        <path d="M993.99 239.27L1008.34 372.18" stroke="rgba(22, 14, 35, 1)" stroke-width="1.5"></path>
        <path d="M993.99 239.27L1133.05 246.46" stroke="rgba(22, 14, 35, 1)" stroke-width="1.5"></path>
        <path d="M1008.34 372.18L1008.34 372.18" stroke="rgba(22, 14, 35, 1)" stroke-width="1.5"></path>
        <path d="M1008.34 372.18L1119.83 397.82" stroke="rgba(22, 14, 35, 1)" stroke-width="1.5"></path>
        <path d="M1008.34 372.18L1133.05 246.46" stroke="rgba(22, 14, 35, 1)" stroke-width="1.5"></path>
        <path d="M1008.34 372.18L963.78 548.64" stroke="rgba(22, 14, 35, 1)" stroke-width="1.5"></path>
        <path d="M1008.34 372.18L1129.58 561.87" stroke="rgba(22, 14, 35, 1)" stroke-width="1.5"></path>
        <path d="M1008.34 372.18L846.76 548.16" stroke="rgba(22, 14, 35, 1)" stroke-width="1.5"></path>
        <path d="M963.78 548.64L963.78 548.64" stroke="rgba(22, 14, 35, 1)" stroke-width="1.5"></path>
        <path d="M963.78 548.64L948.18 662.71" stroke="rgba(22, 14, 35, 1)" stroke-width="1.5"></path>
        <path d="M963.78 548.64L1129.58 561.87" stroke="rgba(22, 14, 35, 1)" stroke-width="1.5"></path>
        <path d="M963.78 548.64L1108.72 661.55" stroke="rgba(22, 14, 35, 1)" stroke-width="1.5"></path>
        <path d="M963.78 548.64L1119.83 397.82" stroke="rgba(22, 14, 35, 1)" stroke-width="1.5"></path>
        <path d="M948.18 662.71L948.18 662.71" stroke="rgba(22, 14, 35, 1)" stroke-width="1.5"></path>
        <path d="M948.18 662.71L1108.72 661.55" stroke="rgba(22, 14, 35, 1)" stroke-width="1.5"></path>
        <path d="M1097.32 59.96L1097.32 59.96" stroke="rgba(22, 14, 35, 1)" stroke-width="1.5"></path>
        <path d="M1097.32 59.96L1133.05 246.46" stroke="rgba(22, 14, 35, 1)" stroke-width="1.5"></path>
        <path d="M1097.32 59.96L1292.03 102.7" stroke="rgba(22, 14, 35, 1)" stroke-width="1.5"></path>
        <path d="M1097.32 59.96L1260.08 -56.87" stroke="rgba(22, 14, 35, 1)" stroke-width="1.5"></path>
        <path d="M1133.05 246.46L1133.05 246.46" stroke="rgba(22, 14, 35, 1)" stroke-width="1.5"></path>
        <path d="M1133.05 246.46L1258.16 224.77" stroke="rgba(22, 14, 35, 1)" stroke-width="1.5"></path>
        <path d="M1133.05 246.46L1119.83 397.82" stroke="rgba(22, 14, 35, 1)" stroke-width="1.5"></path>
        <path d="M1133.05 246.46L1278.47 375.9" stroke="rgba(22, 14, 35, 1)" stroke-width="1.5"></path>
        <path d="M1119.83 397.82L1119.83 397.82" stroke="rgba(22, 14, 35, 1)" stroke-width="1.5"></path>
        <path d="M1119.83 397.82L1278.47 375.9" stroke="rgba(22, 14, 35, 1)" stroke-width="1.5"></path>
        <path d="M1119.83 397.82L1129.58 561.87" stroke="rgba(22, 14, 35, 1)" stroke-width="1.5"></path>
        <path d="M1119.83 397.82L993.99 239.27" stroke="rgba(22, 14, 35, 1)" stroke-width="1.5"></path>
        <path d="M1119.83 397.82L1269.07 537.91" stroke="rgba(22, 14, 35, 1)" stroke-width="1.5"></path>
        <path d="M1129.58 561.87L1129.58 561.87" stroke="rgba(22, 14, 35, 1)" stroke-width="1.5"></path>
        <path d="M1129.58 561.87L1108.72 661.55" stroke="rgba(22, 14, 35, 1)" stroke-width="1.5"></path>
        <path d="M1129.58 561.87L1269.07 537.91" stroke="rgba(22, 14, 35, 1)" stroke-width="1.5"></path>
        <path d="M1108.72 661.55L1108.72 661.55" stroke="rgba(22, 14, 35, 1)" stroke-width="1.5"></path>
        <path d="M1260.08 -56.87L1260.08 -56.87" stroke="rgba(22, 14, 35, 1)" stroke-width="1.5"></path>
        <path d="M1260.08 -56.87L1402.72 -56.58" stroke="rgba(22, 14, 35, 1)" stroke-width="1.5"></path>
        <path d="M1260.08 -56.87L1292.03 102.7" stroke="rgba(22, 14, 35, 1)" stroke-width="1.5"></path>
        <path d="M1260.08 -56.87L988.14 -40.48" stroke="rgba(22, 14, 35, 1)" stroke-width="1.5"></path>
        <path d="M1292.03 102.7L1292.03 102.7" stroke="rgba(22, 14, 35, 1)" stroke-width="1.5"></path>
        <path d="M1292.03 102.7L1258.16 224.77" stroke="rgba(22, 14, 35, 1)" stroke-width="1.5"></path>
        <path d="M1258.16 224.77L1258.16 224.77" stroke="rgba(22, 14, 35, 1)" stroke-width="1.5"></path>
        <path d="M1278.47 375.9L1278.47 375.9" stroke="rgba(22, 14, 35, 1)" stroke-width="1.5"></path>
        <path d="M1278.47 375.9L1258.16 224.77" stroke="rgba(22, 14, 35, 1)" stroke-width="1.5"></path>
        <path d="M1269.07 537.91L1269.07 537.91" stroke="rgba(22, 14, 35, 1)" stroke-width="1.5"></path>
        <path d="M1269.07 537.91L1414.06 488.41" stroke="rgba(22, 14, 35, 1)" stroke-width="1.5"></path>
        <path d="M1269.07 537.91L1278.47 375.9" stroke="rgba(22, 14, 35, 1)" stroke-width="1.5"></path>
        <path d="M1269.07 537.91L1288.92 704.58" stroke="rgba(22, 14, 35, 1)" stroke-width="1.5"></path>
        <path d="M1288.92 704.58L1288.92 704.58" stroke="rgba(22, 14, 35, 1)" stroke-width="1.5"></path>
        <path d="M1288.92 704.58L1108.72 661.55" stroke="rgba(22, 14, 35, 1)" stroke-width="1.5"></path>
        <path d="M1288.92 704.58L1129.58 561.87" stroke="rgba(22, 14, 35, 1)" stroke-width="1.5"></path>
        <path d="M1288.92 704.58L1414.06 488.41" stroke="rgba(22, 14, 35, 1)" stroke-width="1.5"></path>
        <path d="M1288.92 704.58L1574.23 681.69" stroke="rgba(22, 14, 35, 1)" stroke-width="1.5"></path>
        <path d="M1402.72 -56.58L1402.72 -56.58" stroke="rgba(22, 14, 35, 1)" stroke-width="1.5"></path>
        <path d="M1399.35 244.41L1399.35 244.41" stroke="rgba(22, 14, 35, 1)" stroke-width="1.5"></path>
        <path d="M1399.35 244.41L1258.16 224.77" stroke="rgba(22, 14, 35, 1)" stroke-width="1.5"></path>
        <path d="M1399.35 244.41L1442.58 410.4" stroke="rgba(22, 14, 35, 1)" stroke-width="1.5"></path>
        <path d="M1399.35 244.41L1292.03 102.7" stroke="rgba(22, 14, 35, 1)" stroke-width="1.5"></path>
        <path d="M1399.35 244.41L1278.47 375.9" stroke="rgba(22, 14, 35, 1)" stroke-width="1.5"></path>
        <path d="M1399.35 244.41L1591.24 218.92" stroke="rgba(22, 14, 35, 1)" stroke-width="1.5"></path>
        <path d="M1399.35 244.41L1414.06 488.41" stroke="rgba(22, 14, 35, 1)" stroke-width="1.5"></path>
        <path d="M1442.58 410.4L1442.58 410.4" stroke="rgba(22, 14, 35, 1)" stroke-width="1.5"></path>
        <path d="M1442.58 410.4L1414.06 488.41" stroke="rgba(22, 14, 35, 1)" stroke-width="1.5"></path>
        <path d="M1442.58 410.4L1278.47 375.9" stroke="rgba(22, 14, 35, 1)" stroke-width="1.5"></path>
        <path d="M1442.58 410.4L1569.86 543.35" stroke="rgba(22, 14, 35, 1)" stroke-width="1.5"></path>
        <path d="M1442.58 410.4L1269.07 537.91" stroke="rgba(22, 14, 35, 1)" stroke-width="1.5"></path>
        <path d="M1414.06 488.41L1414.06 488.41" stroke="rgba(22, 14, 35, 1)" stroke-width="1.5"></path>
        <path d="M1414.06 488.41L1569.86 543.35" stroke="rgba(22, 14, 35, 1)" stroke-width="1.5"></path>
        <path d="M1414.06 488.41L1278.47 375.9" stroke="rgba(22, 14, 35, 1)" stroke-width="1.5"></path>
        <path d="M1572.02 -46.5L1572.02 -46.5" stroke="rgba(22, 14, 35, 1)" stroke-width="1.5"></path>
        <path d="M1572.02 -46.5L1606.16 90.2" stroke="rgba(22, 14, 35, 1)" stroke-width="1.5"></path>
        <path d="M1572.02 -46.5L1402.72 -56.58" stroke="rgba(22, 14, 35, 1)" stroke-width="1.5"></path>
        <path d="M1572.02 -46.5L1591.24 218.92" stroke="rgba(22, 14, 35, 1)" stroke-width="1.5"></path>
        <path d="M1572.02 -46.5L1260.08 -56.87" stroke="rgba(22, 14, 35, 1)" stroke-width="1.5"></path>
        <path d="M1606.16 90.2L1606.16 90.2" stroke="rgba(22, 14, 35, 1)" stroke-width="1.5"></path>
        <path d="M1606.16 90.2L1591.24 218.92" stroke="rgba(22, 14, 35, 1)" stroke-width="1.5"></path>
        <path d="M1591.24 218.92L1591.24 218.92" stroke="rgba(22, 14, 35, 1)" stroke-width="1.5"></path>
        <path d="M1569.86 543.35L1569.86 543.35" stroke="rgba(22, 14, 35, 1)" stroke-width="1.5"></path>
        <path d="M1569.86 543.35L1574.23 681.69" stroke="rgba(22, 14, 35, 1)" stroke-width="1.5"></path>
        <path d="M1569.86 543.35L1269.07 537.91" stroke="rgba(22, 14, 35, 1)" stroke-width="1.5"></path>
        <path d="M1574.23 681.69L1574.23 681.69" stroke="rgba(22, 14, 35, 1)" stroke-width="1.5"></path>
        <path d="M1574.23 681.69L1414.06 488.41" stroke="rgba(22, 14, 35, 1)" stroke-width="1.5"></path>
        <path d="M1574.23 681.69L1442.58 410.4" stroke="rgba(22, 14, 35, 1)" stroke-width="1.5"></path>
        <path d="M1574.23 681.69L1269.07 537.91" stroke="rgba(22, 14, 35, 1)" stroke-width="1.5"></path>
        <circle r="5" cx="-39.82" cy="402.94" fill="rgba(22, 14, 35, 1)"></circle>
        <circle r="5" cx="-46.71" cy="532.44" fill="rgba(22, 14, 35, 1)"></circle>
        <circle r="5" cx="-86.1" cy="677.59" fill="rgba(22, 14, 35, 1)"></circle>
        <circle r="5" cx="73.7" cy="361.8" fill="rgba(22, 14, 35, 1)"></circle>
        <circle r="5" cx="40.11" cy="520.44" fill="rgba(22, 14, 35, 1)"></circle>
        <circle r="5" cx="64.83" cy="708.02" fill="rgba(22, 14, 35, 1)"></circle>
        <circle r="5" cx="210.64" cy="358.06" fill="rgba(22, 14, 35, 1)"></circle>
        <circle r="5" cx="233.75" cy="499.51" fill="rgba(22, 14, 35, 1)"></circle>
        <circle r="5" cx="205.75" cy="678.63" fill="rgba(22, 14, 35, 1)"></circle>
        <circle r="5" cx="340.59" cy="381.27" fill="rgba(22, 14, 35, 1)"></circle>
        <circle r="5" cx="388.09" cy="503.12" fill="rgba(22, 14, 35, 1)"></circle>
        <circle r="5" cx="350.58" cy="651.05" fill="rgba(22, 14, 35, 1)"></circle>
        <circle r="5" cx="507.2" cy="354.05" fill="rgba(22, 14, 35, 1)"></circle>
        <circle r="5" cx="500.34" cy="497.39" fill="rgba(22, 14, 35, 1)"></circle>
        <circle r="5" cx="544.48" cy="683.98" fill="rgba(22, 14, 35, 1)"></circle>
        <circle r="5" cx="662.82" cy="348.82" fill="rgba(22, 14, 35, 1)"></circle>
        <circle r="5" cx="703.37" cy="543.61" fill="rgba(22, 14, 35, 1)"></circle>
        <circle r="5" cx="673.02" cy="674.19" fill="rgba(22, 14, 35, 1)"></circle>
        <circle r="5" cx="846.76" cy="548.16" fill="rgba(22, 14, 35, 1)"></circle>
        <circle r="5" cx="787.89" cy="701.67" fill="rgba(22, 14, 35, 1)"></circle>
        <circle r="5" cx="988.14" cy="-40.48" fill="rgba(22, 14, 35, 1)"></circle>
        <circle r="5" cx="965.25" cy="70.86" fill="rgba(22, 14, 35, 1)"></circle>
        <circle r="5" cx="993.99" cy="239.27" fill="rgba(22, 14, 35, 1)"></circle>
        <circle r="5" cx="1008.34" cy="372.18" fill="rgba(22, 14, 35, 1)"></circle>
        <circle r="5" cx="963.78" cy="548.64" fill="rgba(22, 14, 35, 1)"></circle>
        <circle r="5" cx="948.18" cy="662.71" fill="rgba(22, 14, 35, 1)"></circle>
        <circle r="5" cx="1097.32" cy="59.96" fill="rgba(22, 14, 35, 1)"></circle>
        <circle r="5" cx="1133.05" cy="246.46" fill="rgba(22, 14, 35, 1)"></circle>
        <circle r="5" cx="1119.83" cy="397.82" fill="rgba(22, 14, 35, 1)"></circle>
        <circle r="5" cx="1129.58" cy="561.87" fill="rgba(22, 14, 35, 1)"></circle>
        <circle r="5" cx="1108.72" cy="661.55" fill="rgba(22, 14, 35, 1)"></circle>
        <circle r="5" cx="1260.08" cy="-56.87" fill="rgba(22, 14, 35, 1)"></circle>
        <circle r="5" cx="1292.03" cy="102.7" fill="rgba(22, 14, 35, 1)"></circle>
        <circle r="5" cx="1258.16" cy="224.77" fill="rgba(22, 14, 35, 1)"></circle>
        <circle r="5" cx="1278.47" cy="375.9" fill="rgba(22, 14, 35, 1)"></circle>
        <circle r="5" cx="1269.07" cy="537.91" fill="rgba(22, 14, 35, 1)"></circle>
        <circle r="5" cx="1288.92" cy="704.58" fill="rgba(22, 14, 35, 1)"></circle>
        <circle r="5" cx="1402.72" cy="-56.58" fill="rgba(22, 14, 35, 1)"></circle>
        <circle r="5" cx="1399.35" cy="244.41" fill="rgba(22, 14, 35, 1)"></circle>
        <circle r="5" cx="1442.58" cy="410.4" fill="rgba(22, 14, 35, 1)"></circle>
        <circle r="5" cx="1414.06" cy="488.41" fill="rgba(22, 14, 35, 1)"></circle>
        <circle r="5" cx="1572.02" cy="-46.5" fill="rgba(22, 14, 35, 1)"></circle>
        <circle r="5" cx="1606.16" cy="90.2" fill="rgba(22, 14, 35, 1)"></circle>
        <circle r="5" cx="1591.24" cy="218.92" fill="rgba(22, 14, 35, 1)"></circle>
        <circle r="5" cx="1569.86" cy="543.35" fill="rgba(22, 14, 35, 1)"></circle>
        <circle r="5" cx="1574.23" cy="681.69" fill="rgba(22, 14, 35, 1)"></circle>
        <path d="M-47.69 495.84L-47.69 495.84" stroke="hsl(181.70000000000005, 98.4%, 66.3%)" stroke-width="1.5"></path>
        <path d="M-47.69 495.84L-75.76 702.26" stroke="hsl(181.70000000000005, 98.4%, 66.3%)" stroke-width="1.5"></path>
        <path d="M-47.69 495.84L87.51 705.27" stroke="hsl(181.70000000000005, 98.4%, 66.3%)" stroke-width="1.5"></path>
        <path d="M-47.69 495.84L241.51 519.3" stroke="hsl(181.70000000000005, 98.4%, 66.3%)" stroke-width="1.5"></path>
        <path d="M-47.69 495.84L212.48 700.02" stroke="hsl(181.70000000000005, 98.4%, 66.3%)" stroke-width="1.5"></path>
        <path d="M-47.69 495.84L356.96 511.13" stroke="hsl(181.70000000000005, 98.4%, 66.3%)" stroke-width="1.5"></path>
        <path d="M551.37 407.25L551.37 407.25" stroke="hsl(181.70000000000005, 98.4%, 66.3%)" stroke-width="1.5"></path>
        <path d="M551.37 407.25L637.72 377.48" stroke="hsl(181.70000000000005, 98.4%, 66.3%)" stroke-width="1.5"></path>
        <path d="M551.37 407.25L658.74 492.57" stroke="hsl(181.70000000000005, 98.4%, 66.3%)" stroke-width="1.5"></path>
        <path d="M551.37 407.25L356.96 511.13" stroke="hsl(181.70000000000005, 98.4%, 66.3%)" stroke-width="1.5"></path>
        <path d="M551.37 407.25L553.61 642.7" stroke="hsl(181.70000000000005, 98.4%, 66.3%)" stroke-width="1.5"></path>
        <path d="M658.74 492.57L658.74 492.57" stroke="hsl(181.70000000000005, 98.4%, 66.3%)" stroke-width="1.5"></path>
        <path d="M658.74 492.57L637.72 377.48" stroke="hsl(181.70000000000005, 98.4%, 66.3%)" stroke-width="1.5"></path>
        <path d="M818.81 700.46L818.81 700.46" stroke="hsl(181.70000000000005, 98.4%, 66.3%)" stroke-width="1.5"></path>
        <path d="M818.81 700.46L837.95 555.18" stroke="hsl(181.70000000000005, 98.4%, 66.3%)" stroke-width="1.5"></path>
        <path d="M818.81 700.46L965.77 687.73" stroke="hsl(181.70000000000005, 98.4%, 66.3%)" stroke-width="1.5"></path>
        <path d="M818.81 700.46L675.85 653.25" stroke="hsl(181.70000000000005, 98.4%, 66.3%)" stroke-width="1.5"></path>
        <path d="M818.81 700.46L950.22 507.17" stroke="hsl(181.70000000000005, 98.4%, 66.3%)" stroke-width="1.5"></path>
        <path d="M950.22 507.17L950.22 507.17" stroke="hsl(181.70000000000005, 98.4%, 66.3%)" stroke-width="1.5"></path>
        <path d="M950.22 507.17L943.92 405.1" stroke="hsl(181.70000000000005, 98.4%, 66.3%)" stroke-width="1.5"></path>
        <path d="M950.22 507.17L837.95 555.18" stroke="hsl(181.70000000000005, 98.4%, 66.3%)" stroke-width="1.5"></path>
        <path d="M950.22 507.17L1097.89 500.43" stroke="hsl(181.70000000000005, 98.4%, 66.3%)" stroke-width="1.5"></path>
        <path d="M950.22 507.17L965.77 687.73" stroke="hsl(181.70000000000005, 98.4%, 66.3%)" stroke-width="1.5"></path>
        <path d="M965.77 687.73L965.77 687.73" stroke="hsl(181.70000000000005, 98.4%, 66.3%)" stroke-width="1.5"></path>
        <path d="M965.77 687.73L1122.65 667.28" stroke="hsl(181.70000000000005, 98.4%, 66.3%)" stroke-width="1.5"></path>
        <path d="M965.77 687.73L837.95 555.18" stroke="hsl(181.70000000000005, 98.4%, 66.3%)" stroke-width="1.5"></path>
        <path d="M965.77 687.73L1097.89 500.43" stroke="hsl(181.70000000000005, 98.4%, 66.3%)" stroke-width="1.5"></path>
        <path d="M1440.58 393.35L1440.58 393.35" stroke="hsl(181.70000000000005, 98.4%, 66.3%)" stroke-width="1.5"></path>
        <path d="M1440.58 393.35L1298.34 398.78" stroke="hsl(181.70000000000005, 98.4%, 66.3%)" stroke-width="1.5"></path>
        <path d="M1440.58 393.35L1416.78 561.83" stroke="hsl(181.70000000000005, 98.4%, 66.3%)" stroke-width="1.5"></path>
        <path d="M-75.76 702.26L-75.76 702.26" stroke="hsl(181.70000000000005, 98.4%, 66.3%)" stroke-width="1.5"></path>
        <path d="M-75.76 702.26L87.51 705.27" stroke="hsl(181.70000000000005, 98.4%, 66.3%)" stroke-width="1.5"></path>
        <path d="M-75.76 702.26L212.48 700.02" stroke="hsl(181.70000000000005, 98.4%, 66.3%)" stroke-width="1.5"></path>
        <path d="M-75.76 702.26L241.51 519.3" stroke="hsl(181.70000000000005, 98.4%, 66.3%)" stroke-width="1.5"></path>
        <path d="M-75.76 702.26L393.6 663.45" stroke="hsl(181.70000000000005, 98.4%, 66.3%)" stroke-width="1.5"></path>
        <path d="M-75.76 702.26L356.96 511.13" stroke="hsl(181.70000000000005, 98.4%, 66.3%)" stroke-width="1.5"></path>
        <path d="M87.51 705.27L87.51 705.27" stroke="hsl(181.70000000000005, 98.4%, 66.3%)" stroke-width="1.5"></path>
        <path d="M87.51 705.27L212.48 700.02" stroke="hsl(181.70000000000005, 98.4%, 66.3%)" stroke-width="1.5"></path>
        <path d="M87.51 705.27L241.51 519.3" stroke="hsl(181.70000000000005, 98.4%, 66.3%)" stroke-width="1.5"></path>
        <path d="M87.51 705.27L393.6 663.45" stroke="hsl(181.70000000000005, 98.4%, 66.3%)" stroke-width="1.5"></path>
        <path d="M87.51 705.27L356.96 511.13" stroke="hsl(181.70000000000005, 98.4%, 66.3%)" stroke-width="1.5"></path>
        <path d="M241.51 519.3L241.51 519.3" stroke="hsl(181.70000000000005, 98.4%, 66.3%)" stroke-width="1.5"></path>
        <path d="M241.51 519.3L356.96 511.13" stroke="hsl(181.70000000000005, 98.4%, 66.3%)" stroke-width="1.5"></path>
        <path d="M241.51 519.3L212.48 700.02" stroke="hsl(181.70000000000005, 98.4%, 66.3%)" stroke-width="1.5"></path>
        <path d="M241.51 519.3L393.6 663.45" stroke="hsl(181.70000000000005, 98.4%, 66.3%)" stroke-width="1.5"></path>
        <path d="M212.48 700.02L212.48 700.02" stroke="hsl(181.70000000000005, 98.4%, 66.3%)" stroke-width="1.5"></path>
        <path d="M212.48 700.02L393.6 663.45" stroke="hsl(181.70000000000005, 98.4%, 66.3%)" stroke-width="1.5"></path>
        <path d="M212.48 700.02L356.96 511.13" stroke="hsl(181.70000000000005, 98.4%, 66.3%)" stroke-width="1.5"></path>
        <path d="M356.96 511.13L356.96 511.13" stroke="hsl(181.70000000000005, 98.4%, 66.3%)" stroke-width="1.5"></path>
        <path d="M356.96 511.13L393.6 663.45" stroke="hsl(181.70000000000005, 98.4%, 66.3%)" stroke-width="1.5"></path>
        <path d="M356.96 511.13L553.61 642.7" stroke="hsl(181.70000000000005, 98.4%, 66.3%)" stroke-width="1.5"></path>
        <path d="M393.6 663.45L393.6 663.45" stroke="hsl(181.70000000000005, 98.4%, 66.3%)" stroke-width="1.5"></path>
        <path d="M393.6 663.45L553.61 642.7" stroke="hsl(181.70000000000005, 98.4%, 66.3%)" stroke-width="1.5"></path>
        <path d="M553.61 642.7L553.61 642.7" stroke="hsl(181.70000000000005, 98.4%, 66.3%)" stroke-width="1.5"></path>
        <path d="M553.61 642.7L675.85 653.25" stroke="hsl(181.70000000000005, 98.4%, 66.3%)" stroke-width="1.5"></path>
        <path d="M553.61 642.7L658.74 492.57" stroke="hsl(181.70000000000005, 98.4%, 66.3%)" stroke-width="1.5"></path>
        <path d="M553.61 642.7L818.81 700.46" stroke="hsl(181.70000000000005, 98.4%, 66.3%)" stroke-width="1.5"></path>
        <path d="M637.72 377.48L637.72 377.48" stroke="hsl(181.70000000000005, 98.4%, 66.3%)" stroke-width="1.5"></path>
        <path d="M637.72 377.48L853.08 353.95" stroke="hsl(181.70000000000005, 98.4%, 66.3%)" stroke-width="1.5"></path>
        <path d="M637.72 377.48L837.95 555.18" stroke="hsl(181.70000000000005, 98.4%, 66.3%)" stroke-width="1.5"></path>
        <path d="M675.85 653.25L675.85 653.25" stroke="hsl(181.70000000000005, 98.4%, 66.3%)" stroke-width="1.5"></path>
        <path d="M853.08 353.95L853.08 353.95" stroke="hsl(181.70000000000005, 98.4%, 66.3%)" stroke-width="1.5"></path>
        <path d="M853.08 353.95L943.92 405.1" stroke="hsl(181.70000000000005, 98.4%, 66.3%)" stroke-width="1.5"></path>
        <path d="M853.08 353.95L950.22 507.17" stroke="hsl(181.70000000000005, 98.4%, 66.3%)" stroke-width="1.5"></path>
        <path d="M853.08 353.95L837.95 555.18" stroke="hsl(181.70000000000005, 98.4%, 66.3%)" stroke-width="1.5"></path>
        <path d="M837.95 555.18L837.95 555.18" stroke="hsl(181.70000000000005, 98.4%, 66.3%)" stroke-width="1.5"></path>
        <path d="M837.95 555.18L943.92 405.1" stroke="hsl(181.70000000000005, 98.4%, 66.3%)" stroke-width="1.5"></path>
        <path d="M837.95 555.18L675.85 653.25" stroke="hsl(181.70000000000005, 98.4%, 66.3%)" stroke-width="1.5"></path>
        <path d="M943.92 405.1L943.92 405.1" stroke="hsl(181.70000000000005, 98.4%, 66.3%)" stroke-width="1.5"></path>
        <path d="M943.92 405.1L1097.89 500.43" stroke="hsl(181.70000000000005, 98.4%, 66.3%)" stroke-width="1.5"></path>
        <path d="M943.92 405.1L1148.35 371.05" stroke="hsl(181.70000000000005, 98.4%, 66.3%)" stroke-width="1.5"></path>
        <path d="M943.92 405.1L1110.64 189.25" stroke="hsl(181.70000000000005, 98.4%, 66.3%)" stroke-width="1.5"></path>
        <path d="M1110.64 189.25L1110.64 189.25" stroke="hsl(181.70000000000005, 98.4%, 66.3%)" stroke-width="1.5"></path>
        <path d="M1110.64 189.25L1148.35 371.05" stroke="hsl(181.70000000000005, 98.4%, 66.3%)" stroke-width="1.5"></path>
        <path d="M1110.64 189.25L1305.95 189.45" stroke="hsl(181.70000000000005, 98.4%, 66.3%)" stroke-width="1.5"></path>
        <path d="M1110.64 189.25L1296.49 106.11" stroke="hsl(181.70000000000005, 98.4%, 66.3%)" stroke-width="1.5"></path>
        <path d="M1110.64 189.25L1298.34 398.78" stroke="hsl(181.70000000000005, 98.4%, 66.3%)" stroke-width="1.5"></path>
        <path d="M1110.64 189.25L1412.12 204.68" stroke="hsl(181.70000000000005, 98.4%, 66.3%)" stroke-width="1.5"></path>
        <path d="M1148.35 371.05L1148.35 371.05" stroke="hsl(181.70000000000005, 98.4%, 66.3%)" stroke-width="1.5"></path>
        <path d="M1148.35 371.05L1097.89 500.43" stroke="hsl(181.70000000000005, 98.4%, 66.3%)" stroke-width="1.5"></path>
        <path d="M1148.35 371.05L1298.34 398.78" stroke="hsl(181.70000000000005, 98.4%, 66.3%)" stroke-width="1.5"></path>
        <path d="M1097.89 500.43L1097.89 500.43" stroke="hsl(181.70000000000005, 98.4%, 66.3%)" stroke-width="1.5"></path>
        <path d="M1122.65 667.28L1122.65 667.28" stroke="hsl(181.70000000000005, 98.4%, 66.3%)" stroke-width="1.5"></path>
        <path d="M1122.65 667.28L1097.89 500.43" stroke="hsl(181.70000000000005, 98.4%, 66.3%)" stroke-width="1.5"></path>
        <path d="M1122.65 667.28L1297.47 676.6" stroke="hsl(181.70000000000005, 98.4%, 66.3%)" stroke-width="1.5"></path>
        <path d="M1122.65 667.28L1249.6 500.25" stroke="hsl(181.70000000000005, 98.4%, 66.3%)" stroke-width="1.5"></path>
        <path d="M1256.83 -90.92L1256.83 -90.92" stroke="hsl(181.70000000000005, 98.4%, 66.3%)" stroke-width="1.5"></path>
        <path d="M1256.83 -90.92L1418.39 -60.63" stroke="hsl(181.70000000000005, 98.4%, 66.3%)" stroke-width="1.5"></path>
        <path d="M1256.83 -90.92L1296.49 106.11" stroke="hsl(181.70000000000005, 98.4%, 66.3%)" stroke-width="1.5"></path>
        <path d="M1256.83 -90.92L1424.93 100.93" stroke="hsl(181.70000000000005, 98.4%, 66.3%)" stroke-width="1.5"></path>
        <path d="M1256.83 -90.92L1305.95 189.45" stroke="hsl(181.70000000000005, 98.4%, 66.3%)" stroke-width="1.5"></path>
        <path d="M1256.83 -90.92L1110.64 189.25" stroke="hsl(181.70000000000005, 98.4%, 66.3%)" stroke-width="1.5"></path>
        <path d="M1296.49 106.11L1296.49 106.11" stroke="hsl(181.70000000000005, 98.4%, 66.3%)" stroke-width="1.5"></path>
        <path d="M1296.49 106.11L1305.95 189.45" stroke="hsl(181.70000000000005, 98.4%, 66.3%)" stroke-width="1.5"></path>
        <path d="M1296.49 106.11L1424.93 100.93" stroke="hsl(181.70000000000005, 98.4%, 66.3%)" stroke-width="1.5"></path>
        <path d="M1305.95 189.45L1305.95 189.45" stroke="hsl(181.70000000000005, 98.4%, 66.3%)" stroke-width="1.5"></path>
        <path d="M1305.95 189.45L1412.12 204.68" stroke="hsl(181.70000000000005, 98.4%, 66.3%)" stroke-width="1.5"></path>
        <path d="M1305.95 189.45L1424.93 100.93" stroke="hsl(181.70000000000005, 98.4%, 66.3%)" stroke-width="1.5"></path>
        <path d="M1305.95 189.45L1298.34 398.78" stroke="hsl(181.70000000000005, 98.4%, 66.3%)" stroke-width="1.5"></path>
        <path d="M1305.95 189.45L1148.35 371.05" stroke="hsl(181.70000000000005, 98.4%, 66.3%)" stroke-width="1.5"></path>
        <path d="M1298.34 398.78L1298.34 398.78" stroke="hsl(181.70000000000005, 98.4%, 66.3%)" stroke-width="1.5"></path>
        <path d="M1298.34 398.78L1249.6 500.25" stroke="hsl(181.70000000000005, 98.4%, 66.3%)" stroke-width="1.5"></path>
        <path d="M1298.34 398.78L1416.78 561.83" stroke="hsl(181.70000000000005, 98.4%, 66.3%)" stroke-width="1.5"></path>
        <path d="M1249.6 500.25L1249.6 500.25" stroke="hsl(181.70000000000005, 98.4%, 66.3%)" stroke-width="1.5"></path>
        <path d="M1249.6 500.25L1097.89 500.43" stroke="hsl(181.70000000000005, 98.4%, 66.3%)" stroke-width="1.5"></path>
        <path d="M1249.6 500.25L1148.35 371.05" stroke="hsl(181.70000000000005, 98.4%, 66.3%)" stroke-width="1.5"></path>
        <path d="M1249.6 500.25L1416.78 561.83" stroke="hsl(181.70000000000005, 98.4%, 66.3%)" stroke-width="1.5"></path>
        <path d="M1249.6 500.25L1297.47 676.6" stroke="hsl(181.70000000000005, 98.4%, 66.3%)" stroke-width="1.5"></path>
        <path d="M1297.47 676.6L1297.47 676.6" stroke="hsl(181.70000000000005, 98.4%, 66.3%)" stroke-width="1.5"></path>
        <path d="M1297.47 676.6L1389.18 651.35" stroke="hsl(181.70000000000005, 98.4%, 66.3%)" stroke-width="1.5"></path>
        <path d="M1297.47 676.6L1416.78 561.83" stroke="hsl(181.70000000000005, 98.4%, 66.3%)" stroke-width="1.5"></path>
        <path d="M1297.47 676.6L1097.89 500.43" stroke="hsl(181.70000000000005, 98.4%, 66.3%)" stroke-width="1.5"></path>
        <path d="M1418.39 -60.63L1418.39 -60.63" stroke="hsl(181.70000000000005, 98.4%, 66.3%)" stroke-width="1.5"></path>
        <path d="M1418.39 -60.63L1424.93 100.93" stroke="hsl(181.70000000000005, 98.4%, 66.3%)" stroke-width="1.5"></path>
        <path d="M1418.39 -60.63L1580.47 -95.62" stroke="hsl(181.70000000000005, 98.4%, 66.3%)" stroke-width="1.5"></path>
        <path d="M1418.39 -60.63L1296.49 106.11" stroke="hsl(181.70000000000005, 98.4%, 66.3%)" stroke-width="1.5"></path>
        <path d="M1424.93 100.93L1424.93 100.93" stroke="hsl(181.70000000000005, 98.4%, 66.3%)" stroke-width="1.5"></path>
        <path d="M1424.93 100.93L1412.12 204.68" stroke="hsl(181.70000000000005, 98.4%, 66.3%)" stroke-width="1.5"></path>
        <path d="M1412.12 204.68L1412.12 204.68" stroke="hsl(181.70000000000005, 98.4%, 66.3%)" stroke-width="1.5"></path>
        <path d="M1416.78 561.83L1416.78 561.83" stroke="hsl(181.70000000000005, 98.4%, 66.3%)" stroke-width="1.5"></path>
        <path d="M1416.78 561.83L1389.18 651.35" stroke="hsl(181.70000000000005, 98.4%, 66.3%)" stroke-width="1.5"></path>
        <path d="M1416.78 561.83L1599.24 534" stroke="hsl(181.70000000000005, 98.4%, 66.3%)" stroke-width="1.5"></path>
        <path d="M1389.18 651.35L1389.18 651.35" stroke="hsl(181.70000000000005, 98.4%, 66.3%)" stroke-width="1.5"></path>
        <path d="M1580.47 -95.62L1580.47 -95.62" stroke="hsl(181.70000000000005, 98.4%, 66.3%)" stroke-width="1.5"></path>
        <path d="M1580.47 -95.62L1607.63 97.04" stroke="hsl(181.70000000000005, 98.4%, 66.3%)" stroke-width="1.5"></path>
        <path d="M1580.47 -95.62L1424.93 100.93" stroke="hsl(181.70000000000005, 98.4%, 66.3%)" stroke-width="1.5"></path>
        <path d="M1580.47 -95.62L1564.03 203.6" stroke="hsl(181.70000000000005, 98.4%, 66.3%)" stroke-width="1.5"></path>
        <path d="M1580.47 -95.62L1256.83 -90.92" stroke="hsl(181.70000000000005, 98.4%, 66.3%)" stroke-width="1.5"></path>
        <path d="M1580.47 -95.62L1412.12 204.68" stroke="hsl(181.70000000000005, 98.4%, 66.3%)" stroke-width="1.5"></path>
        <path d="M1607.63 97.04L1607.63 97.04" stroke="hsl(181.70000000000005, 98.4%, 66.3%)" stroke-width="1.5"></path>
        <path d="M1607.63 97.04L1564.03 203.6" stroke="hsl(181.70000000000005, 98.4%, 66.3%)" stroke-width="1.5"></path>
        <path d="M1607.63 97.04L1424.93 100.93" stroke="hsl(181.70000000000005, 98.4%, 66.3%)" stroke-width="1.5"></path>
        <path d="M1607.63 97.04L1412.12 204.68" stroke="hsl(181.70000000000005, 98.4%, 66.3%)" stroke-width="1.5"></path>
        <path d="M1564.03 203.6L1564.03 203.6" stroke="hsl(181.70000000000005, 98.4%, 66.3%)" stroke-width="1.5"></path>
        <path d="M1564.03 203.6L1412.12 204.68" stroke="hsl(181.70000000000005, 98.4%, 66.3%)" stroke-width="1.5"></path>
        <path d="M1564.03 203.6L1424.93 100.93" stroke="hsl(181.70000000000005, 98.4%, 66.3%)" stroke-width="1.5"></path>
        <path d="M1564.03 203.6L1440.58 393.35" stroke="hsl(181.70000000000005, 98.4%, 66.3%)" stroke-width="1.5"></path>
        <path d="M1564.03 203.6L1305.95 189.45" stroke="hsl(181.70000000000005, 98.4%, 66.3%)" stroke-width="1.5"></path>
        <path d="M1599.24 534L1599.24 534" stroke="hsl(181.70000000000005, 98.4%, 66.3%)" stroke-width="1.5"></path>
        <path d="M1599.24 534L1600.28 645.95" stroke="hsl(181.70000000000005, 98.4%, 66.3%)" stroke-width="1.5"></path>
        <path d="M1599.24 534L1440.58 393.35" stroke="hsl(181.70000000000005, 98.4%, 66.3%)" stroke-width="1.5"></path>
        <path d="M1599.24 534L1389.18 651.35" stroke="hsl(181.70000000000005, 98.4%, 66.3%)" stroke-width="1.5"></path>
        <path d="M1600.28 645.95L1600.28 645.95" stroke="hsl(181.70000000000005, 98.4%, 66.3%)" stroke-width="1.5"></path>
        <path d="M1600.28 645.95L1416.78 561.83" stroke="hsl(181.70000000000005, 98.4%, 66.3%)" stroke-width="1.5"></path>
        <path d="M1600.28 645.95L1389.18 651.35" stroke="hsl(181.70000000000005, 98.4%, 66.3%)" stroke-width="1.5"></path>
        <circle r="25" cx="-47.69" cy="495.84" fill="url(&quot;#SvgjsRadialGradient1040&quot;)"></circle>
        <circle r="25" cx="551.37" cy="407.25" fill="url(&quot;#SvgjsRadialGradient1040&quot;)"></circle>
        <circle r="25" cx="658.74" cy="492.57" fill="url(&quot;#SvgjsRadialGradient1040&quot;)"></circle>
        <circle r="25" cx="818.81" cy="700.46" fill="url(&quot;#SvgjsRadialGradient1040&quot;)"></circle>
        <circle r="25" cx="950.22" cy="507.17" fill="url(&quot;#SvgjsRadialGradient1040&quot;)"></circle>
        <circle r="25" cx="965.77" cy="687.73" fill="url(&quot;#SvgjsRadialGradient1040&quot;)"></circle>
        <circle r="25" cx="1440.58" cy="393.35" fill="url(&quot;#SvgjsRadialGradient1040&quot;)"></circle>
        <circle r="5" cx="-75.76" cy="702.26" fill="#83fbfe"></circle>
        <circle r="5" cx="87.51" cy="705.27" fill="#83fbfe"></circle>
        <circle r="5" cx="241.51" cy="519.3" fill="#83fbfe"></circle>
        <circle r="5" cx="212.48" cy="700.02" fill="#83fbfe"></circle>
        <circle r="5" cx="356.96" cy="511.13" fill="#83fbfe"></circle>
        <circle r="5" cx="393.6" cy="663.45" fill="#83fbfe"></circle>
        <circle r="5" cx="553.61" cy="642.7" fill="#83fbfe"></circle>
        <circle r="5" cx="637.72" cy="377.48" fill="#83fbfe"></circle>
        <circle r="5" cx="675.85" cy="653.25" fill="#83fbfe"></circle>
        <circle r="5" cx="853.08" cy="353.95" fill="#83fbfe"></circle>
        <circle r="5" cx="837.95" cy="555.18" fill="#83fbfe"></circle>
        <circle r="5" cx="943.92" cy="405.1" fill="#83fbfe"></circle>
        <circle r="5" cx="1110.64" cy="189.25" fill="#83fbfe"></circle>
        <circle r="5" cx="1148.35" cy="371.05" fill="#83fbfe"></circle>
        <circle r="5" cx="1097.89" cy="500.43" fill="#83fbfe"></circle>
        <circle r="5" cx="1122.65" cy="667.28" fill="#83fbfe"></circle>
        <circle r="5" cx="1256.83" cy="-90.92" fill="#83fbfe"></circle>
        <circle r="5" cx="1296.49" cy="106.11" fill="#83fbfe"></circle>
        <circle r="5" cx="1305.95" cy="189.45" fill="#83fbfe"></circle>
        <circle r="5" cx="1298.34" cy="398.78" fill="#83fbfe"></circle>
        <circle r="5" cx="1249.6" cy="500.25" fill="#83fbfe"></circle>
        <circle r="5" cx="1297.47" cy="676.6" fill="#83fbfe"></circle>
        <circle r="5" cx="1418.39" cy="-60.63" fill="#83fbfe"></circle>
        <circle r="5" cx="1424.93" cy="100.93" fill="#83fbfe"></circle>
        <circle r="5" cx="1412.12" cy="204.68" fill="#83fbfe"></circle>
        <circle r="5" cx="1416.78" cy="561.83" fill="#83fbfe"></circle>
        <circle r="5" cx="1389.18" cy="651.35" fill="#83fbfe"></circle>
        <circle r="5" cx="1580.47" cy="-95.62" fill="#83fbfe"></circle>
        <circle r="5" cx="1607.63" cy="97.04" fill="#83fbfe"></circle>
        <circle r="5" cx="1564.03" cy="203.6" fill="#83fbfe"></circle>
        <circle r="5" cx="1599.24" cy="534" fill="#83fbfe"></circle>
        <circle r="5" cx="1600.28" cy="645.95" fill="#83fbfe"></circle>
    </g>
    <defs>
        <mask id="SvgjsMask1038">
            <rect width="1440" height="560" fill="#ffffff"></rect>
        </mask>
        <linearGradient x1="100%" y1="50%" x2="0%" y2="50%" gradientUnits="userSpaceOnUse" id="SvgjsLinearGradient1039">
            <stop stop-color="#0e2a47" offset="0"></stop>
            <stop stop-color="rgba(22, 14, 35, 1)" offset="1"></stop>
        </linearGradient>
        <radialGradient id="SvgjsRadialGradient1040">
            <stop stop-color="#ffffff" offset="0.1"></stop>
            <stop stop-color="rgba(7, 246, 253, 1)" offset="0.2"></stop>
            <stop stop-color="rgba(7, 246, 253, 0)" offset="1"></stop>
        </radialGradient>
    </defs>
</svg>